<svg xmlns="http://www.w3.org/2000/svg" viewBox="0 0 1200 720" role="img" aria-labelledby="title desc">
  <title id="title">Forest Stegosaurus</title>
  <desc id="desc">Illustrated stegosaurus silhouette wandering in a misty forest.</desc>
  <defs>
    <linearGradient id="sky3" x1="0%" y1="0%" x2="0%" y2="100%">
      <stop offset="0%" stop-color="#0a1f2f" />
      <stop offset="60%" stop-color="#123547" />
      <stop offset="100%" stop-color="#0a1b2b" />
    </linearGradient>
    <linearGradient id="dino3" x1="0%" y1="0%" x2="100%" y2="100%">
      <stop offset="0%" stop-color="#f59e0b" />
      <stop offset="100%" stop-color="#f97316" />
    </linearGradient>
    <linearGradient id="fog" x1="0%" y1="0%" x2="100%" y2="0%">
      <stop offset="0%" stop-color="#22d3ee" stop-opacity="0.18" />
      <stop offset="100%" stop-color="#38bdf8" stop-opacity="0.25" />
    </linearGradient>
    <filter id="shadow3" x="-20%" y="-20%" width="140%" height="140%">
      <feDropShadow dx="0" dy="18" stdDeviation="14" flood-color="#041220" flood-opacity="0.7" />
    </filter>
  </defs>
  <rect width="1200" height="720" fill="url(#sky3)" />
  <rect y="540" width="1200" height="180" fill="#0b1929" opacity="0.86" />
  <rect y="500" width="1200" height="36" fill="url(#fog)" opacity="0.65" />
  <g transform="translate(100,150) scale(4.3)" filter="url(#shadow3)">
    <path fill="url(#dino3)" d="M14 88c4-8 12-15 24-18l22-6 12-8c9-7 20-10 32-11 12-1 22-5 32-8 14-4 30 0 42 8 10 7 14 18 11 23-4 6-18 5-26 9-10 6-12 17-22 22-9 4-22 0-34 3l-29 6c-10 2-22 0-30-6l-23-16c-7-5-17-6-21-13-2-4-1-9 2-13Z" />
    <path fill="#0b172a" opacity="0.28" d="M86 52c-7 0-15-6-14-12 0-6 7-10 14-10 7 1 13 6 12 12-1 6-6 10-12 10Z" />
  </g>
  <text x="6%" y="90%" fill="#e2f1ff" font-family="'Baloo 2', 'Fredoka', system-ui" font-size="48" font-weight="700" letter-spacing="2">Stegosaurus Grove</text>
  <text x="6%" y="95%" fill="#9fb7c8" font-family="'Baloo 2', 'Fredoka', system-ui" font-size="28" font-weight="600">Fresh stego vibes with offline-safe graphics.</text>
</svg>
