<svg xmlns="http://www.w3.org/2000/svg" viewBox="0 0 1200 720" role="img" aria-labelledby="title desc">
  <title id="title">Stormy Park Rex</title>
  <desc id="desc">Illustrated tyrannosaurus silhouette in a rainy park with fences.</desc>
  <defs>
    <linearGradient id="sky4" x1="0%" y1="0%" x2="0%" y2="100%">
      <stop offset="0%" stop-color="#0a1222" />
      <stop offset="55%" stop-color="#0f253a" />
      <stop offset="100%" stop-color="#0a1220" />
    </linearGradient>
    <linearGradient id="dino4" x1="0%" y1="0%" x2="100%" y2="100%">
      <stop offset="0%" stop-color="#8b5cf6" />
      <stop offset="100%" stop-color="#6366f1" />
    </linearGradient>
    <linearGradient id="rain" x1="0%" y1="0%" x2="100%" y2="0%">
      <stop offset="0%" stop-color="#38bdf8" stop-opacity="0.32" />
      <stop offset="100%" stop-color="#0ea5e9" stop-opacity="0.2" />
    </linearGradient>
    <filter id="shadow4" x="-20%" y="-20%" width="140%" height="140%">
      <feDropShadow dx="0" dy="16" stdDeviation="13" flood-color="#050c18" flood-opacity="0.72" />
    </filter>
  </defs>
  <rect width="1200" height="720" fill="url(#sky4)" />
  <rect y="530" width="1200" height="190" fill="#0b1528" opacity="0.9" />
  <rect y="500" width="1200" height="34" fill="url(#rain)" opacity="0.72" />
  <g transform="translate(120,120) scale(4.2)" filter="url(#shadow4)">
    <path fill="url(#dino4)" d="M18 76c10-10 18-15 32-17l18-4 12-16c12-15 41-26 67-18 14 5 28 16 31 30 1 6 6 12 12 13 8 2 14 9 9 14-5 4-16 3-25 1-8-2-18 3-24 8l-22 16c-8 6-22 9-36 7l-28-4c-9-1-19 4-27 1-6-3-5-11 1-15 5-2 8-7 7-11-2-7-16-5-27-5-4 0-7-4-5-8l6-8Z" />
    <path fill="#0b172a" opacity="0.26" d="M64 53c-7 5-17 5-24 2-6-3-4-12 3-13 6-2 17 1 24 11Z" />
  </g>
  <text x="6%" y="90%" fill="#e2e8f0" font-family="'Baloo 2', 'Fredoka', system-ui" font-size="48" font-weight="700" letter-spacing="2">Park Gate Sentinel</text>
  <text x="6%" y="95%" fill="#9fb7c8" font-family="'Baloo 2', 'Fredoka', system-ui" font-size="28" font-weight="600">Hero art is now bundled with the game for reliability.</text>
</svg>
